HIERARCHY
ROOT Hips
{
	OFFSET 0.000000 83.214638 0.000000
	CHANNELS 6 Xposition Yposition Zposition Xrotation Yrotation Zrotation
	JOINT Pelvis
	{
		OFFSET 0.000000 0.000000 0.000000
		CHANNELS 3 Xrotation Yrotation Zrotation
		JOINT LeftUpLeg
		{
			OFFSET 8.479700 -4.795502 -0.379100
			CHANNELS 3 Xrotation Yrotation Zrotation
			JOINT LeftLeg
			{
				OFFSET 0.024144 -32.555107 0.112900
				CHANNELS 3 Xrotation Yrotation Zrotation
				JOINT LeftFoot
				{
					OFFSET -0.024144 -32.638630 -3.012600
					CHANNELS 3 Xrotation Yrotation Zrotation
					JOINT LeftToeBase
					{
						OFFSET 0.970200 -13.225400 11.864200
						CHANNELS 3 Xrotation Yrotation Zrotation
						End Site
						{
							OFFSET 0.000000 12.319262 0.000000
						}
					}
					JOINT LFootTongue
					{
						OFFSET 1.142400 -1.059800 6.665200
						CHANNELS 3 Xrotation Yrotation Zrotation
						End Site
						{
							OFFSET 0.000000 12.319262 0.000000
						}
					}
				}
				JOINT LeftPantLeg
				{
					OFFSET 0.918482 -16.533964 -2.284700
					CHANNELS 3 Xrotation Yrotation Zrotation
					End Site
					{
						OFFSET 0.350399 24.744368 0.000000
					}
				}
			}
		}
		JOINT RightUpLeg
		{
			OFFSET -8.479700 -4.795502 -0.379100
			CHANNELS 3 Xrotation Yrotation Zrotation
			JOINT RightLeg
			{
				OFFSET -0.023144 -32.555092 0.112900
				CHANNELS 3 Xrotation Yrotation Zrotation
				JOINT RightFoot
				{
					OFFSET 0.023144 -32.638641 -3.012700
					CHANNELS 3 Xrotation Yrotation Zrotation
					JOINT RightToeBase
					{
						OFFSET -0.970200 -13.225400 11.864200
						CHANNELS 3 Xrotation Yrotation Zrotation
						End Site
						{
							OFFSET 0.000000 12.319244 0.000000
						}
					}
					JOINT RFootTongue
					{
						OFFSET -1.142200 -1.059800 6.665200
						CHANNELS 3 Xrotation Yrotation Zrotation
						End Site
						{
							OFFSET 0.000000 12.319243 0.000000
						}
					}
				}
				JOINT RightPantLeg
				{
					OFFSET -0.919482 -16.533978 -2.284800
					CHANNELS 3 Xrotation Yrotation Zrotation
					End Site
					{
						OFFSET -0.350400 24.744419 0.000000
					}
				}
			}
		}
	}
	JOINT Spine
	{
		OFFSET 0.000000 7.722000 1.166200
		CHANNELS 3 Xrotation Yrotation Zrotation
		JOINT Spine1
		{
			OFFSET 0.000000 12.024101 0.248800
			CHANNELS 3 Xrotation Yrotation Zrotation
			JOINT Spine2
			{
				OFFSET 0.000000 11.502998 -0.491200
				CHANNELS 3 Xrotation Yrotation Zrotation
				JOINT Neck
				{
					OFFSET 0.000000 18.430702 -3.123100
					CHANNELS 3 Xrotation Yrotation Zrotation
					JOINT Head
					{
						OFFSET 0.000000 9.051102 1.034000
						CHANNELS 3 Xrotation Yrotation Zrotation
						JOINT HairB
						{
							OFFSET 0.208400 24.786102 24.822300
							CHANNELS 3 Xrotation Yrotation Zrotation
							End Site
							{
								OFFSET 0.000000 32.263779 0.000000
							}
						}
						JOINT HairA
						{
							OFFSET -7.081100 24.428299 23.196600
							CHANNELS 3 Xrotation Yrotation Zrotation
							End Site
							{
								OFFSET 0.000000 32.263779 0.000000
							}
						}
						JOINT Hat
						{
							OFFSET 16.728800 15.048294 -15.439601
							CHANNELS 3 Xrotation Yrotation Zrotation
							End Site
							{
								OFFSET 0.000000 32.263779 0.000000
							}
						}
					}
				}
				JOINT LeftShoulder
				{
					OFFSET 6.197800 13.665199 -4.064700
					CHANNELS 3 Xrotation Yrotation Zrotation
					JOINT LeftArm
					{
						OFFSET 7.778100 -0.187103 -1.709300
						CHANNELS 3 Xrotation Yrotation Zrotation
						JOINT LeftForeArm
						{
							OFFSET 22.049376 0.000000 0.000000
							CHANNELS 3 Xrotation Yrotation Zrotation
							JOINT LeftHand
							{
								OFFSET 23.009392 0.000000 0.000000
								CHANNELS 3 Xrotation Yrotation Zrotation
								JOINT LeftHandThumb1
								{
									OFFSET 3.507191 -2.063065 3.133727
									CHANNELS 3 Xrotation Yrotation Zrotation
									JOINT LeftHandThumb2
									{
										OFFSET 3.101337 -1.790558 1.790558
										CHANNELS 3 Xrotation Yrotation Zrotation
										JOINT LeftHandThumb3
										{
											OFFSET 3.058640 -1.765907 1.765906
											CHANNELS 3 Xrotation Yrotation Zrotation
											End Site
											{
												OFFSET -0.415260 3.926476 -0.049563
											}
										}
									}
								}
								JOINT LeftHandIndex1
								{
									OFFSET 11.334419 -0.901459 3.706815
									CHANNELS 3 Xrotation Yrotation Zrotation
									JOINT LeftHandIndex2
									{
										OFFSET 3.283112 0.000000 0.000000
										CHANNELS 3 Xrotation Yrotation Zrotation
										JOINT LeftHandIndex3
										{
											OFFSET 3.323853 0.000000 0.000000
											CHANNELS 3 Xrotation Yrotation Zrotation
											End Site
											{
												OFFSET -1.135597 3.097809 0.402452
											}
										}
									}
								}
								JOINT LeftHandMiddle1
								{
									OFFSET 11.335861 0.000000 0.000000
									CHANNELS 3 Xrotation Yrotation Zrotation
									JOINT LeftHandMiddle2
									{
										OFFSET 3.410492 0.000000 0.000000
										CHANNELS 3 Xrotation Yrotation Zrotation
										JOINT LeftHandMiddle3
										{
											OFFSET 3.312172 0.000000 0.000000
											CHANNELS 3 Xrotation Yrotation Zrotation
											End Site
											{
												OFFSET -1.150200 3.080154 0.400270
											}
										}
									}
								}
								JOINT LeftHandRing1
								{
									OFFSET 11.514786 -0.013176 -3.003090
									CHANNELS 3 Xrotation Yrotation Zrotation
									JOINT LeftHandRing2
									{
										OFFSET 3.053307 0.000000 0.000000
										CHANNELS 3 Xrotation Yrotation Zrotation
										JOINT LeftHandRing3
										{
											OFFSET 3.295807 0.000000 0.000000
											CHANNELS 3 Xrotation Yrotation Zrotation
											End Site
											{
												OFFSET -1.281006 3.013344 0.375733
											}
										}
									}
								}
								JOINT LeftHandPinky1
								{
									OFFSET 10.518692 -0.960396 -5.730441
									CHANNELS 3 Xrotation Yrotation Zrotation
									JOINT LeftHandPinky2
									{
										OFFSET 2.861649 0.000000 0.000000
										CHANNELS 3 Xrotation Yrotation Zrotation
										JOINT LeftHandPinky3
										{
											OFFSET 2.863380 0.000000 0.000000
											CHANNELS 3 Xrotation Yrotation Zrotation
											End Site
											{
												OFFSET -0.843597 2.711159 0.369971
											}
										}
									}
								}
							}
							JOINT LSleeve
							{
								OFFSET 6.676277 -0.344902 -1.011730
								CHANNELS 3 Xrotation Yrotation Zrotation
								End Site
								{
									OFFSET 0.000000 14.885353 0.000000
								}
							}
						}
					}
				}
				JOINT RightShoulder
				{
					OFFSET -6.197800 13.665199 -4.064700
					CHANNELS 3 Xrotation Yrotation Zrotation
					JOINT RightArm
					{
						OFFSET -7.778100 -0.187103 -1.709300
						CHANNELS 3 Xrotation Yrotation Zrotation
						JOINT RightForeArm
						{
							OFFSET -22.049376 0.000000 0.000000
							CHANNELS 3 Xrotation Yrotation Zrotation
							JOINT RightHand
							{
								OFFSET -23.009392 0.000000 0.000000
								CHANNELS 3 Xrotation Yrotation Zrotation
								JOINT RightHandThumb1
								{
									OFFSET -3.507191 -2.063065 3.133727
									CHANNELS 3 Xrotation Yrotation Zrotation
									JOINT RightHandThumb2
									{
										OFFSET -3.101337 -1.790558 1.790558
										CHANNELS 3 Xrotation Yrotation Zrotation
										JOINT RightHandThumb3
										{
											OFFSET -3.058640 -1.765907 1.765906
											CHANNELS 3 Xrotation Yrotation Zrotation
											End Site
											{
												OFFSET 0.415260 3.926476 -0.049563
											}
										}
									}
								}
								JOINT RightHandIndex1
								{
									OFFSET -11.334419 -0.901459 3.706815
									CHANNELS 3 Xrotation Yrotation Zrotation
									JOINT RightHandIndex2
									{
										OFFSET -3.283112 0.000000 0.000000
										CHANNELS 3 Xrotation Yrotation Zrotation
										JOINT RightHandIndex3
										{
											OFFSET -3.323853 0.000000 0.000000
											CHANNELS 3 Xrotation Yrotation Zrotation
											End Site
											{
												OFFSET 1.135597 3.097809 0.402452
											}
										}
									}
								}
								JOINT RightHandMiddle1
								{
									OFFSET -11.335861 0.000000 0.000000
									CHANNELS 3 Xrotation Yrotation Zrotation
									JOINT RightHandMiddle2
									{
										OFFSET -3.410492 0.000000 0.000000
										CHANNELS 3 Xrotation Yrotation Zrotation
										JOINT RightHandMiddle3
										{
											OFFSET -3.312172 0.000000 0.000000
											CHANNELS 3 Xrotation Yrotation Zrotation
											End Site
											{
												OFFSET 1.150200 3.080154 0.400270
											}
										}
									}
								}
								JOINT RightHandRing1
								{
									OFFSET -11.514786 -0.013176 -3.003090
									CHANNELS 3 Xrotation Yrotation Zrotation
									JOINT RightHandRing2
									{
										OFFSET -3.053307 0.000000 0.000000
										CHANNELS 3 Xrotation Yrotation Zrotation
										JOINT RightHandRing3
										{
											OFFSET -3.295807 0.000000 0.000000
											CHANNELS 3 Xrotation Yrotation Zrotation
											End Site
											{
												OFFSET 1.281006 3.013344 0.375733
											}
										}
									}
								}
								JOINT RightHandPinky1
								{
									OFFSET -10.518692 -0.960396 -5.730441
									CHANNELS 3 Xrotation Yrotation Zrotation
									JOINT RightHandPinky2
									{
										OFFSET -2.861649 0.000000 0.000000
										CHANNELS 3 Xrotation Yrotation Zrotation
										JOINT RightHandPinky3
										{
											OFFSET -2.863380 0.000000 0.000000
											CHANNELS 3 Xrotation Yrotation Zrotation
											End Site
											{
												OFFSET 0.843597 2.711159 0.369971
											}
										}
									}
								}
							}
							JOINT RSleeve
							{
								OFFSET -6.676277 -0.344902 -1.011730
								CHANNELS 3 Xrotation Yrotation Zrotation
								End Site
								{
									OFFSET 0.000000 14.885353 0.000000
								}
							}
						}
					}
				}
				JOINT Backpack
				{
					OFFSET 0.000000 -2.471497 36.677502
					CHANNELS 3 Xrotation Yrotation Zrotation
					End Site
					{
						OFFSET 0.000000 20.427315 0.000000
					}
				}
				JOINT Hood
				{
					OFFSET 0.000000 18.754097 -10.431000
					CHANNELS 3 Xrotation Yrotation Zrotation
					JOINT Hood1
					{
						OFFSET 0.000000 -5.011002 -7.685901
						CHANNELS 3 Xrotation Yrotation Zrotation
						End Site
						{
							OFFSET 0.000000 9.175140 0.000000
						}
					}
				}
				JOINT LHoodieString
				{
					OFFSET 5.250500 16.397697 3.089900
					CHANNELS 3 Xrotation Yrotation Zrotation
					JOINT LHoodieString1
					{
						OFFSET 0.257700 -6.364304 3.694600
						CHANNELS 3 Xrotation Yrotation Zrotation
						JOINT LHoodieString2
						{
							OFFSET 0.000000 -9.643799 2.679100
							CHANNELS 3 Xrotation Yrotation Zrotation
							End Site
							{
								OFFSET 0.000000 10.009018 0.000000
							}
						}
					}
				}
				JOINT RHoodieString
				{
					OFFSET -5.250500 16.397697 3.089900
					CHANNELS 3 Xrotation Yrotation Zrotation
					JOINT RHoodieString1
					{
						OFFSET -0.257700 -6.364304 3.694600
						CHANNELS 3 Xrotation Yrotation Zrotation
						JOINT RHoodieString2
						{
							OFFSET 0.000000 -9.643799 2.679100
							CHANNELS 3 Xrotation Yrotation Zrotation
							End Site
							{
								OFFSET 0.000000 10.009018 0.000000
							}
						}
					}
				}
			}
			JOINT LBackpack_Strap
			{
				OFFSET 15.223200 -7.719803 -6.610900
				CHANNELS 3 Xrotation Yrotation Zrotation
				End Site
				{
					OFFSET 0.000000 16.040596 0.000000
				}
			}
			JOINT RBackpack_Strap
			{
				OFFSET -15.223000 -7.719803 -6.610900
				CHANNELS 3 Xrotation Yrotation Zrotation
				End Site
				{
					OFFSET 0.000000 16.040596 0.000000
				}
			}
		}
	}
	JOINT BoyFacialAnim_Joint
	{
		OFFSET 1.000000 -82.208099 -1.550900
		CHANNELS 3 Xrotation Yrotation Zrotation
		End Site
		{
			OFFSET 0.000000 30.012791 0.000000
		}
	}
}
MOTION
Frames: 4
Frame Time: 0.033333
-109.670067 74.811028 1.098278 7.150863 -53.886477 3.232290 0.000000 0.000000 0.000000 -8.521198 -4.716696 31.584400 42.312192 12.705084 -3.919139 2.771945 -12.485843 -6.909738 0.000000 0.000002 0.000001 0.000000 0.000002 0.000001 -0.000003 0.000001 0.000003 -47.035165 -9.675834 -9.914790 42.868296 2.657198 -7.647608 -1.403093 8.711654 11.312048 -0.000000 0.000000 0.000000 -0.000000 0.000000 0.000000 0.000000 -0.000001 0.000000 6.898360 -1.107072 -10.532492 3.466231 -0.596585 2.979863 3.562650 -0.333502 2.925551 5.020456 23.796087 -4.746659 -18.137491 35.006557 10.576154 -0.000000 0.000000 0.000000 -0.000000 0.000000 0.000000 -0.000000 0.000000 0.000000 -10.933529 -16.723334 -21.901994 4.047750 -4.096354 -12.886850 5.957051 -50.475532 8.170797 -10.728731 5.048685 20.921201 -4.738802 -3.404250 11.867251 4.985636 24.522490 -0.058123 -0.000001 -0.000001 0.000001 13.031928 -1.366865 -3.306485 -0.156630 0.306700 -39.876362 -0.000002 0.000002 -0.000005 8.721725 0.344758 -15.180235 0.270777 0.684829 -38.672866 0.000003 0.000001 0.000000 6.377665 3.605668 -24.105402 0.060771 0.367548 -38.895977 -0.000001 -0.000001 -0.000002 -5.509065 7.946376 -22.193506 0.258409 0.297243 -55.359021 -0.000000 -0.000001 0.000003 0.000002 0.000001 0.000000 -8.037486 5.426050 8.621241 -71.602191 -29.159987 -29.125825 32.057295 124.626145 -14.849757 -8.042497 12.371198 -9.660667 -2.615471 7.404465 -11.579955 3.263999 -19.609861 1.832601 -0.000001 -0.000000 0.000000 19.342141 11.449705 -19.024220 -0.113794 -0.316212 13.248999 -0.000003 0.000001 0.000005 4.562608 1.914433 -10.118768 0.331923 -0.426781 22.103775 -0.000000 0.000000 0.000003 -6.866049 -10.827629 -0.024324 0.092080 -0.060413 21.369387 0.000001 -0.000001 0.000004 -19.456079 -20.284837 0.676553 0.216750 -0.047091 32.058172 0.000003 -0.000001 -0.000002 -0.000001 0.000000 -0.000004 0.000002 -0.000003 0.000001 0.000002 -0.000003 0.000001 0.000002 -0.000003 0.000001 0.000002 -0.000003 0.000001 0.000002 -0.000003 0.000001 0.000001 0.000000 -0.000000 0.000002 -0.000003 0.000001 0.000002 -0.000003 0.000001 0.000001 0.000000 -0.000000 0.000001 0.000004 -0.000001 0.000001 0.000004 -0.000001 0.000000 0.000000 0.000000 
-113.800247 74.932289 0.677927 6.535991 -52.683196 1.835188 0.000001 -0.000000 0.000000 -14.485781 -8.024656 32.732514 51.078743 14.800528 -5.134853 15.211128 -10.451639 4.645946 -0.000000 0.000003 -0.000002 -0.000000 0.000003 -0.000003 -0.000003 -0.000002 0.000008 -45.246189 -10.878806 -7.200118 47.185385 0.109025 -8.315632 -6.998206 8.268933 10.403521 0.000000 -0.000001 0.000000 0.000000 -0.000001 0.000000 -0.000001 -0.000001 0.000001 8.449209 -1.298122 -9.553088 2.734511 -0.796957 2.980918 2.846044 -0.562854 2.945612 4.963105 23.202552 -4.887496 -17.689015 34.520848 10.288752 -0.000000 -0.000000 -0.000000 -0.000000 -0.000000 -0.000000 -0.000000 -0.000000 -0.000000 -10.899083 -16.009297 -21.881754 3.843641 -4.435207 -14.832545 11.356953 -48.987483 12.134573 -13.439695 5.194142 21.065406 -4.645978 -4.091345 11.247812 4.738575 23.776271 -0.317997 -0.000001 -0.000000 -0.000001 13.022978 -1.370149 -0.823556 -0.158370 0.305979 -38.408063 0.000001 0.000002 -0.000005 8.718181 0.326874 -12.712026 0.265241 0.681006 -37.204529 0.000001 0.000002 -0.000005 6.375938 3.594317 -22.637023 0.058810 0.357934 -37.427760 -0.000001 -0.000001 -0.000002 -5.501988 7.937470 -20.725294 0.252072 0.294834 -53.890749 -0.000002 0.000003 -0.000001 0.000000 0.000001 0.000002 -8.019916 6.629647 8.267444 -73.426514 -31.412781 -31.273274 30.448331 124.532735 -13.532346 -8.217099 11.957799 -8.224084 -2.660084 7.816823 -11.406728 3.127242 -19.224966 1.974858 -0.000000 0.000001 0.000002 19.341154 11.449604 -18.274909 -0.113158 -0.316950 13.998681 -0.000001 -0.000003 0.000001 4.557385 1.910763 -9.368948 0.335740 -0.429870 22.853369 -0.000001 0.000001 -0.000002 -6.870122 -10.833961 0.723239 0.091684 -0.065409 22.118946 0.000000 0.000001 0.000004 -19.460052 -20.290684 1.421196 0.219627 -0.050131 32.807724 -0.000000 -0.000002 -0.000004 -0.000002 0.000003 -0.000003 0.000002 -0.000001 -0.000000 0.000002 -0.000001 -0.000000 0.000002 -0.000001 -0.000000 0.000002 -0.000001 -0.000000 0.000002 -0.000001 0.000001 0.000001 0.000002 -0.000001 0.000002 -0.000001 -0.000000 0.000002 -0.000001 0.000001 0.000001 0.000002 -0.000001 0.000000 0.000001 -0.000001 0.000000 0.000001 -0.000001 0.000001 -0.000000 0.000000 
-117.327782 75.426575 0.266098 5.048698 -51.871964 -0.424381 -0.000000 -0.000003 0.000000 -20.017194 -11.064292 32.746478 60.364324 14.553171 -6.651659 15.658765 -12.943912 9.672587 -0.000001 -0.000000 0.000002 -0.000001 -0.000000 0.000001 -0.000003 0.000002 0.000003 -41.504413 -12.393952 -4.203287 48.138214 -1.659625 -8.557050 -10.559045 7.966049 9.306856 0.000000 0.000001 0.000000 0.000000 0.000001 0.000000 -0.000001 0.000001 0.000001 11.300770 -1.555751 -8.723158 1.822814 -1.050668 2.602405 1.928695 -0.859075 2.583434 2.691765 22.085243 -2.225295 -15.166010 35.465972 9.012464 0.000001 0.000000 -0.000000 0.000001 0.000000 -0.000000 0.000001 0.000000 -0.000000 -10.811847 -15.211627 -21.837127 3.379102 -4.301934 -16.398130 9.588434 -49.557701 11.630169 -10.581480 7.514955 20.692360 -4.550174 -4.815569 10.602023 4.477246 22.993962 -0.592643 0.000003 0.000000 -0.000001 13.022601 -1.373200 1.782143 -0.160155 0.305149 -36.867199 -0.000003 -0.000001 -0.000005 8.715444 0.308632 -10.121710 0.259555 0.676813 -35.663556 -0.000001 0.000000 0.000006 6.372966 3.582533 -21.096135 0.057001 0.347709 -35.886883 0.000001 -0.000000 -0.000004 -5.503785 7.930948 -19.184111 0.245581 0.293389 -52.349872 -0.000000 -0.000002 -0.000001 0.000003 0.000001 0.000002 -7.986293 7.825710 7.915022 -73.911635 -34.566577 -32.331578 28.245839 123.134992 -11.893740 -8.577962 12.415528 -7.690561 -2.704709 8.221612 -11.236395 2.990145 -18.848720 2.115492 -0.000003 0.000000 -0.000001 19.341544 11.449415 -17.450177 -0.112423 -0.317700 14.823170 0.000000 0.000002 0.000006 4.551667 1.906699 -8.544234 0.339997 -0.433217 23.677903 0.000003 -0.000000 0.000001 -6.874544 -10.841330 1.546614 0.091293 -0.070937 22.943466 -0.000004 -0.000001 0.000004 -19.464731 -20.297526 2.243520 0.222415 -0.053441 33.632234 -0.000000 -0.000001 -0.000002 0.000001 0.000000 -0.000004 -0.000000 0.000001 -0.000001 -0.000000 0.000001 -0.000001 -0.000000 0.000001 -0.000001 -0.000000 0.000001 -0.000001 -0.000000 0.000001 -0.000000 -0.000000 0.000002 -0.000001 -0.000000 0.000001 -0.000001 -0.000000 0.000001 -0.000000 -0.000000 0.000002 -0.000001 0.000001 -0.000001 0.000000 0.000001 -0.000001 0.000000 -0.000000 -0.000003 0.000000 
-120.474762 76.114365 -0.104144 5.218687 -52.341980 -0.255868 0.000000 -0.000001 0.000000 -27.167354 -13.195443 29.924640 69.021698 13.154044 -8.356526 14.826433 -16.801258 9.169681 -0.000001 -0.000002 -0.000000 -0.000001 -0.000002 -0.000002 -0.000000 0.000000 0.000001 -38.757789 -13.398356 -2.044483 47.886299 -0.932020 -8.475537 -12.786682 7.138867 7.370328 -0.000000 0.000004 -0.000000 -0.000000 0.000004 -0.000000 0.000000 0.000000 -0.000000 13.636108 -1.739455 -8.025210 0.941302 -1.350555 2.127156 1.004479 -1.169733 2.004270 2.024453 21.809194 -1.404091 -14.030061 36.298105 7.756815 0.000002 0.000000 0.000001 0.000002 0.000000 0.000001 0.000002 0.000000 0.000001 -10.694693 -14.363019 -21.793126 3.268568 -3.638063 -17.069618 9.433360 -49.555167 10.569778 -11.087672 8.402348 21.445377 -4.455296 -5.550493 9.953669 4.210188 22.204713 -0.872322 0.000001 -0.000000 -0.000000 13.032357 -1.375885 4.415294 -0.161998 0.304320 -35.310029 -0.000000 0.000000 -0.000002 8.713337 0.290775 -7.504132 0.254208 0.672206 -34.106451 0.000001 -0.000001 0.000007 6.368056 3.570679 -19.539085 0.055420 0.337457 -34.329794 -0.000000 0.000001 -0.000004 -5.515695 7.928914 -17.625838 0.239128 0.292132 -50.792756 0.000001 -0.000003 -0.000001 0.000000 0.000002 -0.000004 -7.967498 8.932761 7.771388 -73.966598 -35.306160 -33.079262 22.470655 122.322732 -7.091362 -11.583950 11.242972 -7.847234 -2.748840 8.614057 -11.071149 2.853008 -18.484683 2.249716 0.000000 0.000002 -0.000002 19.344889 11.449047 -16.592126 -0.111684 -0.318476 15.680934 -0.000001 -0.000001 0.000003 4.545798 1.902413 -7.686439 0.344484 -0.436631 24.535624 0.000003 -0.000001 -0.000002 -6.879175 -10.850430 2.403972 0.090991 -0.076686 23.801155 -0.000000 0.000002 0.000004 -19.471893 -20.306989 3.100714 0.225106 -0.056840 34.489942 0.000000 0.000001 -0.000003 0.000001 0.000000 -0.000003 0.000002 0.000001 -0.000000 0.000002 0.000001 -0.000000 0.000002 0.000001 -0.000000 0.000002 0.000001 -0.000000 0.000002 0.000001 -0.000001 0.000001 -0.000001 -0.000001 0.000002 0.000001 -0.000000 0.000002 0.000001 -0.000001 0.000001 -0.000001 -0.000001 -0.000002 -0.000001 0.000003 -0.000002 -0.000001 0.000003 0.000000 -0.000001 0.000000 
